# xmcd CD database file
#
# Track frame offsets:
#	150
#	3738
#	22125
#	38170
#	53628
#	70102
#	84629
#	100178
#	118628
#	133889
#
# Disc length: 1966 seconds
#
# Revision: 0
# Processed by: cddbd v1.5.1PL2 Copyright (c) Steve Scherf et al.
# Submitted via: CDex 1.51
#
DISCID=8507ac0a
DTITLE=Limite 21 - Rankeao
DYEAR=2006
DGENRE=Merengue
TTITLE0=Rankeao
TTITLE1=A la nena le gusta
TTITLE2=El baile pegao
TTITLE3=Temperatura
TTITLE4=Llore por ti
TTITLE5=Solo tu y yo
TTITLE6=Y cuando es ?
TTITLE7=Que lo bailen
TTITLE8=Vamo a toa
TTITLE9=Para que
EXTD=YEAR: 2006
EXTT0=
EXTT1=
EXTT2=
EXTT3=
EXTT4=
EXTT5=
EXTT6=
EXTT7=
EXTT8=
EXTT9=
PLAYORDER=
